<?xml version="1.0" encoding="utf-8"?>
<!-- Generator: Adobe Illustrator 16.0.0, SVG Export Plug-In . SVG Version: 6.00 Build 0)  -->
<!DOCTYPE svg PUBLIC "-//W3C//DTD SVG 1.1//EN" "http://www.w3.org/Graphics/SVG/1.1/DTD/svg11.dtd">
<svg version="1.1" id="Layer_1" xmlns="http://www.w3.org/2000/svg" xmlns:xlink="http://www.w3.org/1999/xlink" x="0px" y="0px"
	 width="1070px" height="1070px" viewBox="0 0 1070 1070" enable-background="new 0 0 1070 1070" xml:space="preserve">
<g>
	<g>
		<defs>
			<path id="SVGID_1_" d="M969.629,449.979v-2.869h-2.871h-16.3h-2.871v2.869v172.207v2.866h2.871h16.3h2.871v-2.866v-69.114
				c0-21.055,12.817-33.407,32.258-33.407c18.572,0,27.9,10.75,27.9,31.113v71.408v2.866h2.87h16.3h2.871v-2.866v-74.623
				c0-28.762-17.812-47.875-47.183-47.875c-15.115,0-27.26,5.538-35.017,13.484V449.979z M870.896,627.807
				c30.514,0,52.052-19.306,57.466-46.623l0.678-3.428h-3.494h-16.532h-2.207l-0.564,2.133
				c-4.637,17.436-17.214,27.484-35.346,27.484c-22.619,0-38.225-17.843-38.225-43.51c0-25.863,15.577-43.74,38.225-43.74
				c18.132,0,30.709,10.053,35.346,27.486l0.564,2.134h2.207h16.532h3.494l-0.678-3.428c-5.414-27.32-26.952-46.627-57.466-46.627
				c-35.437,0-60.499,28.454-60.499,64.175C810.397,599.388,835.493,627.807,870.896,627.807z M802.362,521.96h2.871v-2.869v-13.777
				v-2.869h-2.871h-23.994v-30.422v-2.871h-2.871h-16.304h-2.867v2.871v30.422h-19.402h-2.867v2.869v13.777v2.869h2.867h19.402
				v68.767c0,22.56,11.701,34.785,33.177,34.785c3.748,0,6.98-0.225,9.693-0.601c1.679-0.235,2.838-0.474,3.474-0.65l2.102-0.586
				v-2.182v-14.691v-3.563l-3.48,0.756c-0.138,0.031-0.416,0.088-0.819,0.164c-0.681,0.127-1.441,0.256-2.261,0.374
				c-2.085,0.308-4.154,0.505-6.057,0.543c-0.199,0-0.391,0.002-0.582,0.002c-9.41,0-13.204-4.419-13.204-15.5V521.96H802.362z
				 M633.638,552.27c3.719-19.322,17.929-32.146,37.277-32.146c19.939,0,33.7,12.404,36.712,32.146H633.638z M726.939,571.328h2.696
				l0.166-2.69c0.029-0.476,0.071-1.259,0.116-2.202c0.033-0.744,0.063-1.471,0.084-2.158c0.02-0.746,0.033-1.426,0.033-2.02
				c0-36.024-23.857-62.57-59.12-62.57c-35.2,0-60.271,28.255-60.271,63.945c0,36.728,23.937,64.174,60.499,64.174
				c27.646,0,49.003-16.401,56.697-41.282l1.151-3.717h-3.889h-16.994h-2.027l-0.678,1.909
				c-4.832,13.62-17.916,22.656-34.032,22.656c-21.069,0-35.757-14.469-38.403-36.045H726.939z M520.981,449.979v-2.869h-2.868
				H501.81h-2.87v2.869v172.207v2.866h2.87h16.304h2.868v-2.866v-30.707l23.203-22.596l41.437,55.026l0.86,1.143h1.434h20.205h5.779
				l-3.494-4.601l-50.603-66.654l46.667-46.448l4.928-4.905h-6.951h-21.813h-1.196l-0.844,0.848l-59.612,60.038V449.979z
				 M369.089,572.605l-0.197-2.657h-2.664h-16.53h-2.991l0.123,2.987c1.364,33.287,23.806,55.332,63.714,55.332
				c38.062,0,63.944-19.774,63.944-49.708c0-16.186-5.615-27.64-16.316-35.464c-8.231-6.019-18.072-9.409-34.393-12.949
				c-1.09-0.235-2.227-0.478-3.59-0.765c-0.809-0.168-3.709-0.777-3.556-0.744c-29.639-6.213-39.039-11.613-39.039-27.688
				c0-16.621,13.594-27.206,36.392-27.206c22.183,0,36.201,13.547,36.854,34.872l0.085,2.782h2.783h16.302h2.937l-0.066-2.936
				c-0.769-33.241-23.071-55.613-59.123-55.613c-35.333,0-58.666,21.26-58.666,48.791c0,16.14,5.611,27.38,16.329,34.891
				c8.164,5.721,17.622,8.754,34.306,12.123c0.782,0.156,1.597,0.32,2.568,0.514c0.601,0.118,1.278,0.254,2.552,0.505
				c15.786,3.122,22.751,5.05,29.106,8.743c7.888,4.59,11.804,11.145,11.804,21.292c0,17.621-14.817,27.665-40.754,27.665
				C386.169,607.373,370.758,594.922,369.089,572.605z"/>
		</defs>
		<clipPath id="SVGID_2_">
			<use xlink:href="#SVGID_1_"  overflow="visible"/>
		</clipPath>
		<rect x="333.041" y="433.443" clip-path="url(#SVGID_2_)" fill="#010202" width="732.453" height="208.493"/>
	</g>
	<g>
		<defs>
			<polygon id="SVGID_3_" points="75.837,424.919 149.638,417.179 223.439,424.919 280.576,501 149.638,652.252 18.7,501 			"/>
		</defs>
		<clipPath id="SVGID_4_">
			<use xlink:href="#SVGID_3_"  overflow="visible"/>
		</clipPath>
		<rect x="5.033" y="403.511" clip-path="url(#SVGID_4_)" fill="#FAB311" width="289.211" height="262.406"/>
	</g>
	<g>
		<defs>
			<polygon id="SVGID_5_" points="71.736,501 149.638,652.252 18.7,501 			"/>
		</defs>
		<clipPath id="SVGID_6_">
			<use xlink:href="#SVGID_5_"  overflow="visible"/>
		</clipPath>
		<rect x="5.033" y="487.335" clip-path="url(#SVGID_6_)" fill="#EA6C08" width="158.272" height="178.582"/>
	</g>
	<g>
		<defs>
			<polygon id="SVGID_7_" points="227.541,501 149.638,652.252 280.576,501 			"/>
		</defs>
		<clipPath id="SVGID_8_">
			<use xlink:href="#SVGID_7_"  overflow="visible"/>
		</clipPath>
		<rect x="135.972" y="487.335" clip-path="url(#SVGID_8_)" fill="#EA6C08" width="158.273" height="178.582"/>
	</g>
	<g>
		<defs>
			<polygon id="SVGID_9_" points="71.736,501 227.541,501 149.638,652.252 			"/>
		</defs>
		<clipPath id="SVGID_10_">
			<use xlink:href="#SVGID_9_"  overflow="visible"/>
		</clipPath>
		<rect x="58.07" y="487.335" clip-path="url(#SVGID_10_)" fill="#F8AC11" width="183.137" height="178.582"/>
	</g>
	<g>
		<defs>
			<polygon id="SVGID_11_" points="149.638,417.179 75.837,424.919 71.736,501 			"/>
		</defs>
		<clipPath id="SVGID_12_">
			<use xlink:href="#SVGID_11_"  overflow="visible"/>
		</clipPath>
		<rect x="58.07" y="403.511" clip-path="url(#SVGID_12_)" fill="#FED333" width="105.235" height="111.157"/>
	</g>
	<g>
		<defs>
			<polygon id="SVGID_13_" points="149.638,417.179 223.439,424.919 227.541,501 			"/>
		</defs>
		<clipPath id="SVGID_14_">
			<use xlink:href="#SVGID_13_"  overflow="visible"/>
		</clipPath>
		<rect x="135.972" y="403.511" clip-path="url(#SVGID_14_)" fill="#FED333" width="105.235" height="111.157"/>
	</g>
	<g>
		<defs>
			<polygon id="SVGID_15_" points="280.576,501 223.439,424.919 227.541,501 			"/>
		</defs>
		<clipPath id="SVGID_16_">
			<use xlink:href="#SVGID_15_"  overflow="visible"/>
		</clipPath>
		<rect x="209.772" y="411.252" clip-path="url(#SVGID_16_)" fill="#F8AC11" width="84.473" height="103.416"/>
	</g>
	<g>
		<defs>
			<polygon id="SVGID_17_" points="149.638,417.179 71.736,501 227.541,501 			"/>
		</defs>
		<clipPath id="SVGID_18_">
			<use xlink:href="#SVGID_17_"  overflow="visible"/>
		</clipPath>
		<rect x="58.07" y="403.511" clip-path="url(#SVGID_18_)" fill="#FEEEB7" width="183.137" height="111.157"/>
	</g>
</g>
</svg>
